<svg xmlns="http://www.w3.org/2000/svg" width="31" height="31" viewBox="0 0 31 31">
    <path fill="#4A4A4A" d="M15.5 31C6.94 31 0 24.06 0 15.5 0 6.94 6.94 0 15.5 0 24.06 0 31 6.94 31 15.5 31 24.06 24.06 31 15.5 31zm5.557-20.037a1.02 1.02 0 10-2.04 0 1.02 1.02 0 002.04 0zm-5.557 7.37a2.833 2.833 0 110-5.666 2.833 2.833 0 010 5.666zm0-7.198a4.365 4.365 0 100 8.73 4.365 4.365 0 000-8.73zm6.919 7.8c-.038.828-.176 1.279-.293 1.578-.154.397-.338.68-.636.977-.297.298-.58.482-.977.636-.3.117-.75.255-1.578.293-.896.04-1.165.05-3.435.05s-2.539-.01-3.435-.05c-.828-.038-1.279-.176-1.578-.293a2.634 2.634 0 01-.977-.636 2.634 2.634 0 01-.636-.977c-.117-.3-.255-.75-.293-1.578-.04-.897-.05-1.165-.05-3.435s.01-2.538.05-3.435c.038-.828.176-1.279.293-1.578.154-.397.338-.68.636-.977.297-.298.58-.482.977-.636.3-.117.75-.255 1.578-.293.897-.04 1.165-.05 3.435-.05s2.538.01 3.435.05c.828.038 1.279.176 1.578.293.397.154.68.338.977.636.298.297.482.58.636.977.117.3.255.75.293 1.578.04.897.05 1.165.05 3.435s-.01 2.538-.05 3.435zm1.53-6.94c-.041-.904-.185-1.522-.395-2.063a4.166 4.166 0 00-.98-1.505 4.166 4.166 0 00-1.506-.98c-.54-.21-1.159-.355-2.063-.396C18.098 7.01 17.808 7 15.5 7s-2.598.01-3.505.051c-.904.041-1.522.185-2.063.395a4.166 4.166 0 00-1.505.98 4.166 4.166 0 00-.98 1.506c-.21.54-.355 1.159-.396 2.063C7.01 12.902 7 13.192 7 15.5s.01 2.598.051 3.505c.041.904.185 1.522.395 2.063.217.559.508 1.033.98 1.505.473.473.947.764 1.506.98.54.21 1.159.355 2.063.396.907.041 1.197.051 3.505.051s2.598-.01 3.505-.051c.904-.041 1.522-.185 2.063-.395a4.167 4.167 0 001.505-.98c.473-.473.764-.947.98-1.506.21-.54.355-1.159.396-2.063.041-.907.051-1.197.051-3.505s-.01-2.598-.051-3.505z"/>
</svg>
