<svg xmlns="http://www.w3.org/2000/svg" width="31" height="31" viewBox="0 0 31 31">
    <path fill="#4A4A4A" d="M15.5 31C6.94 31 0 24.06 0 15.5 0 6.94 6.94 0 15.5 0 24.06 0 31 6.94 31 15.5 31 24.06 24.06 31 15.5 31zm6.5-9v-5.128c0-2.52-.543-4.455-3.48-4.455-1.41 0-2.358.775-2.745 1.51h-.04v-1.278h-2.78V22h2.899v-4.625c0-1.22.228-2.402 1.738-2.402 1.489 0 1.508 1.395 1.508 2.48V22H22zM9.683 11.371h.002c.928 0 1.68-.755 1.68-1.686C11.365 8.754 10.61 8 9.682 8 8.752 8 8 8.756 8 9.686c0 .931.754 1.686 1.683 1.685zM8.231 22h2.904v-9.351H8.23V22h.001z"/>
</svg>
