<svg xmlns="http://www.w3.org/2000/svg" width="170" height="24" viewBox="0 0 170 24">
    <path fill="#830000" d="M90.607.242c2.053 0 3.854.35 5.405 1.049 1.55.699 2.74 1.578 3.57 2.637.83 1.06 1.268 2.091 1.311 3.096a.693.693 0 01-.213.508.658.658 0 01-.475.212h-6.552l-.175-.004a1.594 1.594 0 01-.545-.11 2.316 2.316 0 01-.59-.41c-.459-.393-1.038-.59-1.736-.59-1.049 0-1.573.306-1.573.918 0 .327.257.6.77.819.513.218 1.469.415 2.866.59 2.184.283 3.937.71 5.258 1.277 1.322.568 2.283 1.327 2.883 2.277.6.95.901 2.146.901 3.587 0 1.55-.47 2.91-1.408 4.079-.94 1.168-2.234 2.07-3.883 2.703-1.648.633-3.51.95-5.585.95-2.315 0-4.275-.317-5.88-.95-1.606-.634-2.812-1.48-3.62-2.54-.809-1.059-1.234-2.222-1.278-3.488 0-.197.07-.366.213-.508a.693.693 0 01.508-.213h6.224l.176.005c.226.012.413.049.561.11.186.076.41.224.672.442.633.502 1.441.753 2.424.753.742 0 1.338-.081 1.785-.245.448-.164.672-.388.672-.672 0-.393-.295-.693-.885-.9-.59-.208-1.703-.421-3.341-.64-5.635-.742-8.452-3.145-8.452-7.207 0-1.463.42-2.768 1.261-3.915.84-1.146 2.015-2.036 3.522-2.67 1.507-.633 3.243-.95 5.209-.95zM7.305.57l.118.007c.191.025.36.11.505.255a.85.85 0 01.262.623v13.267l.006.243c.036.71.236 1.258.6 1.641.404.426 1.01.639 1.818.639s1.414-.213 1.818-.639c.404-.426.606-1.054.606-1.884V1.455l.008-.118A.852.852 0 0113.3.832a.85.85 0 01.622-.262h6.421l.117.007c.191.025.36.11.505.255a.85.85 0 01.262.623v13.398l-.004.342c-.07 2.822-1.019 4.952-2.846 6.39-1.9 1.497-4.477 2.245-7.731 2.245-3.276 0-5.87-.748-7.78-2.244C.954 20.09 0 17.846 0 14.853V1.455l.007-.118A.852.852 0 01.262.832.85.85 0 01.885.57h6.42zm48.838 0l.117.007c.192.025.36.11.506.255a.85.85 0 01.262.623v15.331h9.074l.118.007c.19.025.359.11.505.255a.85.85 0 01.262.623v4.946l-.008.118a.852.852 0 01-.254.505.85.85 0 01-.623.262h-16.51l-.118-.007a.852.852 0 01-.505-.255.85.85 0 01-.262-.623V1.455l.007-.118a.852.852 0 01.255-.505.85.85 0 01.622-.262h6.552zm20.639 0l.117.007c.191.025.36.11.505.255a.85.85 0 01.262.623v21.162l-.007.118a.852.852 0 01-.255.505.85.85 0 01-.622.262h-6.683l-.118-.007a.852.852 0 01-.505-.255.85.85 0 01-.262-.623V1.455l.008-.118a.852.852 0 01.254-.505A.85.85 0 0170.1.57h6.683zm46.159 0l.117.007c.191.025.36.11.505.255a.85.85 0 01.262.623v5.274l-.007.117a.852.852 0 01-.255.505.85.85 0 01-.622.262h-5.438v15.004l-.008.118a.852.852 0 01-.255.505.85.85 0 01-.622.262h-6.552l-.117-.007a.852.852 0 01-.505-.255.85.85 0 01-.262-.623V7.613h-5.439l-.117-.007a.852.852 0 01-.505-.255.85.85 0 01-.262-.622V1.455l.007-.118a.852.852 0 01.255-.505.85.85 0 01.622-.262h19.198zm20.933 0a.85.85 0 01.623.262.85.85 0 01.262.623v4.619a.85.85 0 01-.262.622.85.85 0 01-.623.262h-9.828v2.064h9.108a.85.85 0 01.622.262.85.85 0 01.262.623v4.258a.85.85 0 01-.262.623.85.85 0 01-.622.262h-9.108v2.064h10.09a.85.85 0 01.623.262.85.85 0 01.262.622v4.62a.85.85 0 01-.262.622.85.85 0 01-.623.262h-17.068a.85.85 0 01-.622-.262.85.85 0 01-.262-.623V1.455a.85.85 0 01.262-.623.85.85 0 01.622-.262zm14.48 0l.475.006c1.883.05 3.57.397 5.062 1.042 1.616.7 2.904 1.726 3.865 3.08.961 1.354 1.475 2.98 1.54 4.881.04 1.129.062 1.923.065 2.382v.21c-.003.438-.025 1.2-.065 2.29-.13 3.013-1.152 5.274-3.063 6.78-1.91 1.508-4.483 2.261-7.715 2.261h-9.599l-.117-.007a.852.852 0 01-.505-.255.85.85 0 01-.262-.623V1.455l.007-.118a.852.852 0 01.255-.505.85.85 0 01.622-.262h9.435zM34.091 0c3.276 0 5.87.748 7.781 2.244 1.911 1.496 2.866 3.74 2.866 6.732v13.4l-.007.116a.852.852 0 01-.255.506.85.85 0 01-.622.262h-6.421l-.117-.008a.852.852 0 01-.505-.254.85.85 0 01-.263-.623V9.107l-.006-.243c-.036-.71-.236-1.257-.6-1.64-.404-.426-1.01-.64-1.818-.64s-1.414.214-1.818.64c-.404.425-.606 1.053-.606 1.883v13.268l-.007.117a.852.852 0 01-.255.506.85.85 0 01-.623.262h-6.42l-.118-.008a.852.852 0 01-.505-.254.85.85 0 01-.262-.623V8.976l.004-.342c.07-2.821 1.02-4.951 2.846-6.39C28.26.748 30.837 0 34.091 0zm124.1 6.958h-1.966v10.156h2.13c.764 0 1.38-.224 1.85-.672.47-.447.726-1.108.77-1.982.044-.633.066-1.452.066-2.457 0-1.026-.022-1.834-.066-2.424-.044-.874-.322-1.529-.835-1.966-.514-.436-1.163-.655-1.95-.655z"/>
</svg>
