<svg xmlns="http://www.w3.org/2000/svg" width="31" height="31" viewBox="0 0 31 31">
    <path fill="#4A4A4A" d="M15.5 31C6.94 31 0 24.06 0 15.5 0 6.94 6.94 0 15.5 0 24.06 0 31 6.94 31 15.5 31 24.06 24.06 31 15.5 31zm9.103-19.97c-.21-.792-.85-1.417-1.68-1.642C21.443 9 15.5 9 15.5 9s-5.942 0-7.424.388c-.828.225-1.468.85-1.68 1.642C6 12.478 6 15.5 6 15.5s0 3.022.397 4.47c.22.8.86 1.426 1.68 1.642C9.557 22 15.5 22 15.5 22s5.942 0 7.424-.388c.828-.225 1.468-.85 1.68-1.642C25 18.522 25 15.5 25 15.5s0-3.022-.397-4.47zM14 18.286v-5.572l5 2.786-5 2.786z"/>
</svg>
